<svg aria-hidden="true" style="position: absolute; width: 0; height: 0; overflow: hidden;" version="1.1" xmlns="http://www.w3.org/2000/svg" xmlns:xlink="http://www.w3.org/1999/xlink">
<defs>
<symbol id="icon-logo" viewBox="0 0 32 32">
<path   d="M13.088 3.366c-0.87 0.28-1.603 0.779-1.786 1.214l-0.077 0.183-1.206-0.006-0.156-0.322c-0.119-0.245-0.223-0.358-0.439-0.476l-0.282-0.154h-2.035c-2.67 0-3.006 0.133-3.006 1.189v0.297l-0.454 0.222c-1.674 0.818-2.985 2.433-3.503 4.314l-0.144 0.525v6.454c0 7.047-0.021 6.592 0.35 7.589 0.832 2.235 2.762 3.852 5.121 4.294 0.793 0.149 20.264 0.149 21.057 0 2.359-0.441 4.289-2.058 5.121-4.294 0.371-0.997 0.35-0.542 0.35-7.589v-6.454l-0.139-0.494c-0.726-2.585-2.586-4.346-5.215-4.943-0.393-0.089-0.909-0.111-3.173-0.135l-2.703-0.028-0.074-0.177c-0.183-0.436-0.97-0.961-1.837-1.225-0.683-0.208-5.114-0.195-5.77 0.016zM25.638 6.926c1.915 0.194 3.408 1.363 4.056 3.178l0.176 0.494 0.018 5.96c0.020 6.815 0.041 6.497-0.498 7.592-0.607 1.234-1.83 2.167-3.197 2.439-0.732 0.145-19.659 0.145-20.389 0-1.379-0.276-2.598-1.227-3.24-2.528-0.489-0.993-0.475-0.76-0.455-7.503l0.018-5.96 0.195-0.539c0.625-1.728 2.153-2.944 3.931-3.128 0.759-0.078 18.61-0.083 19.383-0.005v0.001zM6.091 7.609c-2.008 0.29-3.304 1.924-3.304 4.166v0.83h4.296l0.144-0.293c0.636-1.296 1.915-2.701 3.292-3.616 0.515-0.342 1.872-1.031 2.032-1.031 0.037 0 0.067-0.028 0.067-0.062 0-0.076-5.997-0.072-6.527 0.005v0.001zM19.382 7.587c0 0.029 0.106 0.090 0.235 0.135 1.965 0.681 4.359 2.819 5.176 4.622l0.119 0.262h4.302v-0.83c0-2.093-0.968-3.465-2.881-4.085-0.376-0.122-6.951-0.219-6.951-0.103l-0.001-0.001zM15.405 8.011c-7.299 0.703-10.841 8.612-6.386 14.259 4.926 6.242 15.222 3.139 15.867-4.783 0.432-5.305-4.245-9.979-9.482-9.476zM17.065 10.205c4.204 0.595 6.825 5.131 5.225 9.044-1.843 4.508-7.757 5.664-11.145 2.178-4.495-4.625-0.532-12.136 5.92-11.222zM15.278 11.246c-3.783 0.527-5.964 4.336-4.47 7.807 1.716 3.983 7.47 4.477 9.912 0.851 2.672-3.968-0.692-9.319-5.442-8.658zM17.739 12.102c0.73 0.224 1.277 0.747 1.29 1.233 0.029 1.121-2.242 1.086-3.002-0.047-0.578-0.861 0.451-1.573 1.712-1.186zM14.529 20.643c0.692 0.144 1.722 0.768 1.722 1.043 0 0.641-2.326 0.227-3.005-0.535-0.469-0.527 0.102-0.754 1.283-0.508zM26.824 23.039c-1.292 0.395-1.042 2.168 0.305 2.163 1.37-0.004 1.472-1.995 0.112-2.18-0.138-0.019-0.325-0.011-0.417 0.017v-0.001z"></path>
</symbol>

<symbol id="play-btn"  viewBox="0 0 23 30" >
<path d="M22.35 14.75L0 0C0 22.23 0 11.32 0 29.49L22.35 14.75Z" />
</symbol>
<!--  width="36" height="36" -->
<symbol  id="pause-btn" version="1.1"  viewBox="0 0 36 36">
<path  d="M15.047 34.594v-33.194c0-0.618-0.498-1.116-1.126-1.116h-6.607c-0.628 0-1.126 0.498-1.126 1.116v33.194c0 0.618 0.498 1.126 1.126 1.126h6.607c0.628 0 1.126-0.498 1.126-1.126z"></path>
<path  d="M28.687 0.281h-6.607c-0.618 0-1.126 0.498-1.126 1.116v33.194c0 0.618 0.498 1.126 1.126 1.126h6.607c0.618 0 1.126-0.498 1.126-1.126v-33.194c0-0.618-0.498-1.116-1.126-1.116z"></path>
</symbol>

<!-- width="36" height="36" -->
<symbol  id="volume-on"  viewBox="0 0 36 36">

<path  d="M17.995 2.95c-0.429 0-0.801 0.157-1.115 0.471l-8.248 8.248h-6.489c-0.43 0-0.801 0.157-1.115 0.471s-0.471 0.686-0.471 1.115v9.51c0 0.429 0.157 0.801 0.471 1.115s0.686 0.471 1.115 0.471h6.489l8.248 8.248c0.314 0.314 0.685 0.471 1.115 0.471s0.801-0.157 1.115-0.471 0.471-0.685 0.471-1.115v-26.948c0-0.429-0.157-0.801-0.47-1.115s-0.685-0.471-1.115-0.471z"></path>
<path  d="M28.040 21.515c0.702-1.081 1.053-2.249 1.053-3.505s-0.351-2.428-1.053-3.518c-0.702-1.090-1.63-1.858-2.787-2.304-0.165-0.082-0.372-0.124-0.619-0.124-0.429 0-0.801 0.153-1.115 0.458-0.314 0.307-0.471 0.681-0.471 1.127 0 0.347 0.099 0.64 0.298 0.879s0.437 0.446 0.718 0.619c0.28 0.173 0.561 0.363 0.842 0.57s0.52 0.499 0.718 0.879c0.198 0.38 0.297 0.851 0.297 1.412s-0.099 1.032-0.297 1.412c-0.198 0.38-0.437 0.673-0.718 0.879s-0.562 0.397-0.842 0.57c-0.281 0.173-0.52 0.38-0.718 0.619s-0.298 0.533-0.298 0.879c0 0.446 0.158 0.821 0.471 1.127 0.314 0.304 0.685 0.459 1.115 0.459 0.247 0 0.454-0.041 0.619-0.124 1.156-0.463 2.085-1.235 2.787-2.317z"></path>
<path  d="M33.327 25.008c1.404-2.137 2.106-4.471 2.106-6.999 0-2.527-0.702-4.859-2.106-6.999-1.404-2.137-3.262-3.695-5.573-4.669-0.214-0.082-0.429-0.124-0.644-0.124-0.429 0-0.801 0.157-1.115 0.471s-0.47 0.685-0.47 1.115c0 0.644 0.322 1.131 0.966 1.462 0.924 0.479 1.552 0.842 1.882 1.090 1.222 0.892 2.176 2.010 2.861 3.356s1.028 2.778 1.028 4.299c0 1.519-0.343 2.952-1.028 4.299-0.685 1.346-1.639 2.464-2.861 3.356-0.33 0.248-0.958 0.611-1.882 1.090-0.644 0.331-0.966 0.817-0.966 1.462 0 0.429 0.157 0.801 0.47 1.115s0.693 0.471 1.139 0.471c0.198 0 0.405-0.042 0.619-0.124 2.311-0.975 4.17-2.531 5.573-4.67z"></path>
</symbol>
<!-- width="36" height="36" -->
<symbol id="volume-off"  viewBox="0 0 36 36">
<path  d="M18.405 2.387c-0.445 0-0.831 0.163-1.156 0.488l-8.556 8.556h-6.732c-0.446 0-0.831 0.163-1.156 0.488s-0.488 0.711-0.488 1.156v9.865c0 0.445 0.163 0.831 0.488 1.156s0.711 0.488 1.156 0.488h6.732l8.556 8.556c0.326 0.325 0.711 0.488 1.156 0.488s0.831-0.163 1.156-0.488 0.488-0.711 0.488-1.156v-27.955c0-0.445-0.163-0.831-0.488-1.156s-0.711-0.488-1.156-0.488z"></path>
<path  d="M31.902 18.679l3.468-3.468c0.22-0.22 0.33-0.488 0.33-0.802s-0.11-0.582-0.33-0.802l-1.604-1.604c-0.22-0.22-0.488-0.33-0.802-0.33s-0.582 0.11-0.802 0.33l-3.468 3.468-3.468-3.468c-0.22-0.22-0.488-0.33-0.802-0.33s-0.582 0.11-0.802 0.33l-1.604 1.604c-0.22 0.22-0.33 0.488-0.33 0.802s0.11 0.582 0.33 0.802l3.468 3.468-3.468 3.468c-0.22 0.22-0.33 0.488-0.33 0.802s0.11 0.582 0.33 0.802l1.604 1.604c0.22 0.22 0.488 0.33 0.802 0.33s0.582-0.11 0.802-0.33l3.468-3.468 3.468 3.468c0.22 0.22 0.487 0.33 0.802 0.33s0.582-0.11 0.802-0.33l1.604-1.604c0.22-0.22 0.33-0.488 0.33-0.802s-0.11-0.582-0.33-0.802l-3.468-3.468z"></path>
</symbol>

<symbol id="icon-skills-camera"  width="62" height="50" viewBox="0 0 62 50" >
<path d="M30.897 50.036C22.766 50.036 14.635 50.036 6.505 50.036C6.478 50.036 6.447 50.037 6.415 50.037C2.872 50.037 0 47.165 0 43.622C0 43.59 0 43.559 0.001 43.527V43.532C0.0723333 34.0967 0.0723333 24.6554 0.001 15.208C0.001 15.197 0.001 15.185 0.001 15.172C0.001 11.619 2.881 8.73903 6.434 8.73903C22.767 8.73903 39.082 8.73903 55.415 8.73903C55.497 8.73503 55.593 8.73303 55.69 8.73303C59.085 8.73303 61.837 11.485 61.837 14.88C61.837 14.983 61.834 15.085 61.829 15.186L61.83 15.172V43.532C61.837 43.641 61.841 43.768 61.841 43.897C61.841 47.292 59.089 50.044 55.694 50.044C55.59 50.044 55.486 50.041 55.383 50.036L55.398 50.037L30.897 50.036ZM30.897 43.871C30.939 43.871 30.99 43.872 31.04 43.872C39.014 43.872 45.479 37.407 45.479 29.433C45.479 21.459 39.014 14.994 31.04 14.994C23.078 14.994 16.622 21.438 16.601 29.394V29.396C16.65 37.281 22.988 43.669 30.849 43.799H30.861L30.897 43.871ZM12.384 19.049C12.345 17.928 11.436 17.031 10.313 17.012H10.311C9.176 17.012 8.256 17.932 8.256 19.067C8.256 20.202 9.176 21.122 10.311 21.122C11.448 21.102 12.364 20.186 12.384 19.051V19.049Z" />
<path d="M42.28 6.16506H19.532C19.889 4.73506 20.211 3.35906 20.568 1.98306C20.646 0.853064 21.582 -0.0339355 22.725 -0.0339355C22.859 -0.0339355 22.991 -0.0219355 23.118 0.00206446L23.105 6.4455e-05H38.938C39.008 -0.00793555 39.089 -0.0129355 39.17 -0.0129355C40.219 -0.0129355 41.085 0.766065 41.224 1.77606L41.225 1.78706C41.565 3.07406 41.886 4.36006 42.208 5.64706C42.244 5.80806 42.244 5.96906 42.279 6.16506H42.28Z" />
<path d="M30.861 43.799C22.902 43.778 16.459 37.322 16.459 29.36C16.459 21.386 22.924 14.921 30.898 14.921C38.872 14.921 45.337 21.386 45.337 29.36C45.337 29.41 45.337 29.46 45.336 29.511V29.503C45.215 37.412 38.785 43.78 30.863 43.799H30.861ZM30.861 39.671C36.556 39.671 41.172 35.055 41.172 29.36C41.172 23.665 36.556 19.049 30.861 19.049C25.179 19.049 20.57 23.645 20.55 29.322V29.324C20.55 29.345 20.55 29.371 20.55 29.396C20.55 35.071 25.15 39.671 30.825 39.671C30.863 39.671 30.901 39.671 30.938 39.67H30.932L30.861 39.671Z"/>
<path d="M12.384 19.049C12.365 20.174 11.468 21.083 10.35 21.122H10.346C9.211 21.122 8.291 20.202 8.291 19.067C8.291 17.932 9.211 17.012 10.346 17.012C11.455 17.05 12.345 17.94 12.383 19.046V19.05L12.384 19.049Z" />
<path d="M31.129 21.1401C35.507 21.2841 39.019 24.8011 39.152 29.1691V29.1821C39.154 29.2201 39.156 29.2651 39.156 29.3111C39.156 30.4431 38.272 31.3681 37.156 31.4341H37.15C37.145 31.4341 37.138 31.4341 37.132 31.4341C35.987 31.4341 35.059 30.5061 35.059 29.3611C35.02 27.1091 33.215 25.2921 30.972 25.2331H30.966C30.949 25.2331 30.93 25.2341 30.91 25.2341C29.785 25.2341 28.873 24.3221 28.873 23.1971C28.873 23.1651 28.874 23.1341 28.875 23.1021V23.1061C28.929 22.0051 29.836 21.1321 30.946 21.1321C31.01 21.1321 31.073 21.1351 31.135 21.1401L31.127 21.1391L31.129 21.1401Z"/>
</symbol>



<symbol id="icon-moon" width="41" height="40" viewBox="0 0 41 40" >
<path d="M21.4528 40C15.7066 40 10.315 37.8174 6.27098 33.8545C2.22701 29.8915 5.02421e-07 24.6074 5.02421e-07 18.9761C-0.00085731 15.0913 1.09674 11.2823 3.17098 7.97181C5.24521 4.66132 8.21494 1.97886 11.7505 0.222165C12.1143 0.0404498 12.5246 -0.032245 12.9302 0.0131555C13.3359 0.058556 13.7189 0.220041 14.0315 0.477451C14.344 0.734861 14.5723 1.07679 14.6878 1.46057C14.8033 1.84434 14.8009 2.25294 14.6809 2.63538C13.672 5.82896 13.5728 9.23201 14.3941 12.4768C15.2154 15.7216 16.9259 18.6847 19.3408 21.046C21.0739 22.757 23.136 24.1141 25.4078 25.0388C27.6796 25.9635 30.116 26.4374 32.576 26.433C34.4579 26.4345 36.3292 26.1578 38.1269 25.6125C38.5172 25.4948 38.9342 25.4924 39.3258 25.6056C39.7175 25.7188 40.0665 25.9425 40.3291 26.2488C40.5918 26.5552 40.7566 26.9306 40.8029 27.3282C40.8492 27.7257 40.775 28.1279 40.5895 28.4843C38.7969 31.9492 36.0597 34.8596 32.6817 36.8923C29.3036 38.9251 25.4169 40.0008 21.4528 40ZM11.6763 3.31431C8.93463 4.94908 6.66986 7.24958 5.10105 9.99327C3.53225 12.737 2.71252 15.831 2.72115 18.9761C2.72115 29.0982 11.1241 37.3333 21.4528 37.3333C24.6621 37.3418 27.8193 36.5384 30.619 35.001C33.4187 33.4636 35.7662 31.2441 37.4343 28.5573C35.8413 28.9186 34.2113 29.1007 32.5762 29.1C29.7587 29.1053 26.9682 28.5628 24.3661 27.5041C21.764 26.4453 19.4021 24.8913 17.417 22.9319C14.8382 20.4094 12.9578 17.2845 11.9533 13.8522C10.9489 10.4199 10.8536 6.79329 11.6763 3.31481V3.31431Z"/>

 <symbol id="icon-sun" width="45" height="45" viewBox="0 0 45 45" >
<path d="M22.8374 17.2125C23.9499 17.2125 25.0375 17.5424 25.9625 18.1605C26.8875 18.7786 27.6085 19.6571 28.0342 20.6849C28.46 21.7127 28.5714 22.8437 28.3543 23.9349C28.1373 25.026 27.6015 26.0283 26.8149 26.815C26.0282 27.6016 25.0259 28.1374 23.9348 28.3544C22.8436 28.5715 21.7126 28.4601 20.6848 28.0343C19.657 27.6086 18.7785 26.8876 18.1604 25.9626C17.5423 25.0376 17.2124 23.95 17.2124 22.8375C17.2143 21.3462 17.8075 19.9166 18.862 18.8621C19.9165 17.8076 21.3461 17.2144 22.8374 17.2125ZM22.8374 14.4C21.1686 14.4 19.5373 14.8949 18.1498 15.822C16.7622 16.7491 15.6808 18.0669 15.0422 19.6086C14.4036 21.1504 14.2365 22.8469 14.562 24.4836C14.8876 26.1203 15.6912 27.6237 16.8712 28.8037C18.0512 29.9837 19.5546 30.7873 21.1913 31.1129C22.828 31.4384 24.5245 31.2713 26.0663 30.6327C27.608 29.9941 28.9258 28.9127 29.8529 27.5251C30.7801 26.1376 31.2749 24.5063 31.2749 22.8375C31.2749 20.5997 30.386 18.4536 28.8036 16.8713C27.2213 15.2889 25.0752 14.4 22.8374 14.4Z" />
<path d="M7.58521 9.58078L9.57364 7.59094L14.504 12.5212L12.5155 14.5097L7.58521 9.58078Z" />
<path d="M2.8125 21.1008H9.84375V23.9133H2.8125V21.1008Z" />
<path d="M7.58521 35.4333L12.5155 30.503L14.504 32.4928L9.57364 37.4217L7.58521 35.4333Z"/>
<path d="M21.0938 35.1633H23.9062V42.1945H21.0938V35.1633Z"/>
<path d="M30.4973 32.4928L32.4858 30.503L37.4161 35.4333L35.4276 37.4217L30.4973 32.4928Z"/>
<path d="M35.1562 21.1008H42.1875V23.9133H35.1562V21.1008Z"/>
<path d="M30.4973 12.5212L35.4276 7.59094L37.4161 9.58078L32.4858 14.5097L30.4973 12.5212Z"/>
<path d="M21.0938 2.81953H23.9062V9.85078H21.0938V2.81953Z"/>
</symbol>

<symbol id="icon-skills-image" width="66" height="50" viewBox="0 0 66 50" >
<path d="M-1.41598e-05 48.5029V1.49692C0.361986 0.60892 1.21999 -0.00608008 2.21999 -0.00608008C2.27999 -0.00608008 2.33999 -0.00408008 2.39899 0.000919921H2.39099H63.727C63.784 -0.00408008 63.851 -0.00708008 63.918 -0.00708008C65.158 -0.00708008 66.163 0.99792 66.163 2.23792C66.163 2.30492 66.16 2.37192 66.154 2.43692L66.155 2.42892C66.155 11.9029 66.155 21.3779 66.155 30.8339C66.155 36.4749 66.155 42.1149 66.155 47.7559C66.163 47.8219 66.167 47.8989 66.167 47.9769C66.167 49.0759 65.276 49.9669 64.177 49.9669C64.147 49.9669 64.117 49.9659 64.087 49.9649H64.091H2.64499C2.54299 49.9789 2.42599 49.9879 2.30599 49.9879C1.28699 49.9879 0.407986 49.3869 0.00498584 48.5209L-0.00201416 48.5049L-1.41598e-05 48.5029ZM62.066 4.14392H4.12499V32.0919L4.76399 31.6539L15.991 23.6039C16.388 23.2059 16.936 22.9599 17.543 22.9599C18.15 22.9599 18.698 23.2059 19.095 23.6039L30.888 32.0559C32.713 33.3699 34.539 34.6849 36.364 35.9629C36.696 36.2189 37.117 36.3739 37.575 36.3739C38.476 36.3739 39.237 35.7759 39.482 34.9549L39.486 34.9409C39.537 34.7709 39.566 34.5759 39.566 34.3729C39.566 33.5999 39.141 32.9259 38.511 32.5729L38.501 32.5679C35.9577 30.7793 33.469 28.9843 31.035 27.1829L30.469 26.7629L30.798 26.5069L40.966 19.2049C41.363 18.8069 41.911 18.5609 42.518 18.5609C43.125 18.5609 43.673 18.8069 44.07 19.2049L61.412 31.6549L62.051 32.0749L62.066 4.14392Z" />
<path d="M26.962 9.34597C29.987 9.34597 32.438 11.798 32.438 14.822C32.484 15.09 32.511 15.399 32.511 15.713C32.511 18.738 30.059 21.189 27.035 21.189C24.011 21.189 21.559 18.737 21.559 15.713C21.559 15.398 21.586 15.09 21.637 14.789L21.632 14.821C21.632 14.82 21.632 14.82 21.632 14.819C21.632 11.846 24.001 9.42597 26.955 9.34497H26.963L26.962 9.34597Z" />
</symbol>

<symbol id="icon-skills-microphone" width="32" height="50" viewBox="0 0 32 50" >
<path d="M4.371 50V47.102H14.587V40.93C6.391 40.113 0.038 33.272 0 24.938V24.934H2.881C2.895 29.331 5.074 33.216 8.407 35.581L8.448 35.608C10.52 37.153 13.131 38.082 15.959 38.082C16.196 38.082 16.432 38.075 16.667 38.063L16.634 38.064C23.627 37.725 29.177 32.004 29.24 24.973V24.967H32.138C32.138 25 32.138 25.039 32.138 25.078C32.138 29.228 30.531 33.003 27.905 35.815L27.913 35.806C25.306 38.656 21.696 40.55 17.645 40.926L17.582 40.931V47.021H27.831V49.968L4.371 50Z" fill="#CCBA8D"/>
<path d="M26.326 11.706V16.11H19.04V19.024H26.309V23.412H19.056V26.359H26.194C25.475 31.369 21.212 35.177 16.06 35.177C10.908 35.177 6.64496 31.369 5.93196 26.414L5.92596 26.359H13.097V23.461H5.86096V19.057H13.097V16.126H5.86096V11.755H13.097V8.792H5.95896C6.72396 3.832 10.963 0.0780029 16.078 0.0780029C21.187 0.0780029 25.422 3.823 26.187 8.718L26.194 8.776H19.039V11.707L26.326 11.706Z" fill="#BDAE82"/>
</symbol>

<symbol id="icon-skills-video"  width="60" height="50" viewBox="0 0 60 50">
<path d="M59.843 1.30696V48.781C59.465 49.535 58.698 50.043 57.812 50.043C57.748 50.043 57.685 50.04 57.622 50.035L57.63 50.036H2.194C2.128 50.044 2.051 50.048 1.973 50.048C0.876 50.048 -0.0130005 49.159 -0.0130005 48.062C-0.0130005 47.984 -0.00900049 47.907 -4.88944e-07 47.831L-0.00100049 47.84C-0.00100049 32.6133 -0.00100049 17.387 -0.00100049 2.16096C-0.00600049 2.10596 -0.0100005 2.04196 -0.0100005 1.97696C-0.0100005 0.879962 0.878999 -0.00903808 1.976 -0.00903808C2.047 -0.00903808 2.116 -0.00503808 2.185 0.00196192L2.176 0.000961917C20.666 0.000961917 39.1447 0.000961917 57.612 0.000961917C57.687 -0.00803808 57.774 -0.0140381 57.863 -0.0140381C58.75 -0.0140381 59.511 0.524962 59.837 1.29296L59.842 1.30696H59.843ZM22.544 24.983V30.575C22.545 30.941 22.596 31.295 22.69 31.631L22.683 31.603C23.038 32.503 23.901 33.128 24.909 33.128C25.419 33.128 25.892 32.968 26.28 32.695L26.272 32.7C29.6 30.784 32.892 28.85 36.185 26.899C36.865 26.531 37.318 25.823 37.318 25.009C37.318 24.195 36.864 23.487 36.196 23.124L36.185 23.118C32.892 21.097 29.513 19.163 26.133 17.212C25.78 16.992 25.351 16.861 24.892 16.861C23.583 16.861 22.523 17.922 22.523 19.23C22.523 19.28 22.525 19.33 22.528 19.379V19.372C22.65 21.236 22.545 23.118 22.545 24.982L22.544 24.983ZM9.443 6.55096V3.57196H3.572V6.55096H9.443ZM3.484 46.376H9.442V43.449H3.484V46.376ZM18.833 3.57096H13.066V6.53296H18.833V3.57096ZM22.456 3.57096V6.53296H28.24V3.48396L22.456 3.57096ZM37.613 6.55096V3.57196H31.846V6.53396L37.613 6.55096ZM47.038 3.57096H41.219V6.53296H47.038V3.57096ZM37.631 46.394V43.554H31.847V46.481L37.631 46.394ZM18.815 46.394V43.554H13.048V46.481L18.815 46.394ZM28.24 46.394V43.554H22.473V46.498L28.24 46.394ZM47.038 43.449H41.219V46.376H47.038V43.449ZM56.289 6.55096V3.48496H50.627V6.55096H56.289ZM56.289 43.449H50.627V46.393H56.306L56.289 43.449Z"/>
</symbol>


<symbol id="icon-player-play" viewBox="0 0 32 32">
<path  d="M14.405 0.033c-0.123 0.030-0.726 0.136-1.341 0.235-11.544 1.873-17.005 15.954-9.858 25.422 2.226 2.948 7.337 6.287 7.59 4.957 0.032-0.166-0.273-0.376-1.028-0.709-3.098-1.368-5.902-4.064-7.431-7.146-5.556-11.192 3.949-23.857 16.362-21.801 1.865 0.309 2.188-0.335 0.361-0.718-0.832-0.174-4.206-0.348-4.655-0.24v-0zM14.48 3.334c-2.183 0.322-4.992 1.439-4.992 1.986 0 0.424 0.315 0.391 1.467-0.153 6.31-2.981 13.993 0.281 16.279 6.912 3.799 11.023-8.744 20.354-18.268 13.589-5.292-3.759-6.513-11.225-2.714-16.6 1.008-1.427 0.478-2.030-0.552-0.627-6.343 8.641 0.279 20.847 10.981 20.238 10.803-0.615 15.968-13.56 8.534-21.388-2.725-2.87-7.122-4.49-10.736-3.958l-0 0zM27.468 5.28c-0.222 0.222-0.052 0.618 0.657 1.54 5.259 6.832 3.537 17.043-3.683 21.848-3.253 2.165-6.11 2.765-11.452 2.406-0.503-0.034-0.596 0.005-0.596 0.247 0 1.101 6.394 0.803 9.564-0.447 9.296-3.663 12.961-15.49 7.358-23.741-1.063-1.566-1.598-2.102-1.848-1.852v-0zM11.634 10.858c-0.264 0.292-0.287 0.634-0.327 4.946-0.066 7.088-0.772 6.874 7.787 2.365 4.171-2.198 4.195-2.129-1.788-5.267-4.677-2.454-5.147-2.623-5.672-2.044zM16.803 13.54c4.545 2.374 4.568 2.388 4.25 2.652-0.356 0.296-8.46 4.485-8.676 4.485-0.173 0-0.208-0.779-0.208-4.694 0-3.292 0.049-4.694 0.163-4.694 0.089 0 2.101 1.013 4.471 2.25h-0z"></path>
</symbol>


<symbol id="icon-twitter" viewBox="0 0 32 32">
<path d="M31.238 6.674c-1.143 0.563-2.286 0.762-3.626 0.945 1.341-0.762 2.286-1.905 2.666-3.429-1.149 0.695-2.487 1.224-3.912 1.511l-0.080 0.014c-1.178-1.159-2.789-1.881-4.567-1.905h-0.005c-3.246 0-6.095 2.865-6.095 6.294 0 0.563 0 0.945 0.198 1.326-5.232-0.203-9.85-2.671-12.927-6.445l-0.025-0.032c-0.486 0.83-0.773 1.826-0.773 2.89 0 0.125 0.003 0.249 0.011 0.373l-0.001-0.017c0.039 2.146 1.153 4.024 2.826 5.121l0.024 0.015c-0.96 0-1.905-0.381-2.865-0.762 0 3.048 2.103 5.531 4.952 6.095-0.563 0.198-1.143 0.198-1.706 0.198-0.381 0-0.762 0-1.143-0.198 0.762 2.483 3.048 4.389 5.912 4.389-2.057 1.663-4.704 2.669-7.585 2.669-0.081 0-0.162-0.001-0.243-0.002h-1.511c2.703 1.725 5.984 2.776 9.504 2.849h0.019c11.429 0 17.722-9.523 17.722-17.722v-0.762c1.311-0.903 2.392-2.042 3.203-3.365l0.027-0.048h-0.002z"></path>
</symbol>

<symbol id="icon-facebook" viewBox="0 0 32 32">
<path  d="M12.046 31.238l-0.046-13.334h-5.714v-5.714h5.714v-3.809c0-5.135 3.185-7.619 7.771-7.619 2.194 0 4.083 0.152 4.632 0.229v5.379h-3.185c-2.483 0-2.971 1.189-2.971 2.926v2.895h7.086l-1.905 5.714h-5.181v13.334h-6.201z"></path>
</symbol>

<symbol id="icon-instagram" viewBox="0 0 32 32">
<path  d="M17.554 0.762c2.743 0 3.322 0.031 4.723 0.091 1.615 0.077 2.728 0.335 3.688 0.717 1.006 0.381 1.859 0.914 2.697 1.752 0.854 0.838 1.371 1.691 1.768 2.697 0.381 0.96 0.625 2.072 0.701 3.703 0.077 1.448 0.091 2.011 0.091 5.059v2.438c0 3.048-0.015 3.611-0.091 5.059-0.026 1.331-0.281 2.594-0.727 3.765l0.025-0.077c-0.397 1.006-0.914 1.859-1.752 2.697-0.854 0.854-1.706 1.371-2.712 1.768-0.96 0.381-2.072 0.625-3.688 0.701-1.448 0.077-2.026 0.091-5.074 0.091h-2.423c-3.048 0-3.611-0.015-5.074-0.091-1.331-0.026-2.594-0.281-3.765-0.727l0.077 0.025c-1.055-0.403-1.954-0.999-2.696-1.752l-0.001-0.001c-0.761-0.745-1.362-1.65-1.751-2.662l-0.017-0.051c-0.419-1.093-0.674-2.357-0.701-3.677v-0.011c-0.061-1.191-0.095-2.586-0.095-3.989 0-0.258 0.001-0.517 0.003-0.774v0.039-3.123c0-2.743 0.031-3.322 0.091-4.723 0.077-1.615 0.335-2.728 0.701-3.688 0.397-1.006 0.914-1.859 1.768-2.697 0.737-0.762 1.639-1.36 2.648-1.736l0.049-0.016c1.091-0.424 2.354-0.685 3.674-0.715h0.014c1.402-0.061 1.981-0.091 4.723-0.091h3.125zM17.585 3.505h-3.185c-2.637 0-3.2 0.031-4.571 0.091-1.478 0.061-2.286 0.305-2.819 0.518-0.717 0.274-1.219 0.609-1.752 1.143s-0.869 1.037-1.143 1.752c-0.198 0.534-0.457 1.341-0.518 2.834-0.061 1.371-0.091 1.92-0.091 4.571v3.169c0 2.651 0.031 3.2 0.091 4.571 0.061 1.478 0.305 2.286 0.518 2.819 0.274 0.717 0.609 1.219 1.143 1.752s1.037 0.869 1.752 1.143c0.534 0.214 1.341 0.457 2.834 0.518 1.478 0.077 2.011 0.091 5.303 0.091h1.691c3.306 0 3.825-0.015 5.318-0.091 1.478-0.061 2.286-0.305 2.819-0.518 0.717-0.274 1.219-0.609 1.752-1.143s0.869-1.037 1.143-1.752c0.214-0.534 0.457-1.341 0.518-2.819 0.077-1.494 0.091-2.011 0.091-5.318v-1.677c0-3.306-0.015-3.84-0.091-5.334-0.061-1.478-0.305-2.286-0.518-2.819-0.258-0.687-0.648-1.273-1.142-1.751l-0.001-0.001c-0.48-0.495-1.065-0.885-1.72-1.133l-0.032-0.010c-0.837-0.315-1.803-0.504-2.814-0.518h-0.006c-1.175-0.059-2.55-0.094-3.934-0.094-0.224 0-0.448 0.001-0.672 0.002h0.034l0.001 0.001zM16 8.168c4.321 0 7.825 3.503 7.825 7.825s-3.503 7.825-7.825 7.825c-4.321 0-7.825-3.503-7.825-7.825s3.503-7.825 7.825-7.825zM16 10.911c-2.807 0-5.082 2.275-5.082 5.082s2.275 5.082 5.082 5.082c2.807 0 5.082-2.275 5.082-5.082s-2.275-5.082-5.082-5.082zM24.122 6.034c1.010 0 1.829 0.818 1.829 1.829s-0.818 1.829-1.829 1.829c-1.010 0-1.829-0.818-1.829-1.829s0.818-1.829 1.829-1.829z"></path>
</symbol>

<symbol id="icon-pinterest" viewBox="0 0 32 32">
<path  d="M16 0.762c-8.392 0.031-15.184 6.841-15.184 15.238 0 6.399 3.945 11.878 9.535 14.135l0.102 0.037c-0.152-1.203-0.259-3.048 0.046-4.374l1.783-7.574c0 0-0.457-0.914-0.457-2.255 0-2.118 1.234-3.688 2.774-3.688 1.295 0 1.935 0.975 1.935 2.134 0 1.311-0.838 3.261-1.28 5.074-0.366 1.523 0.762 2.758 2.271 2.758 2.712 0 4.785-2.849 4.785-6.963 0-3.657-2.621-6.186-6.369-6.186-0.087-0.005-0.187-0.007-0.289-0.007-3.645 0-6.598 2.954-6.598 6.598 0 0.002 0 0.005 0 0.007 0 1.311 0.503 2.712 1.128 3.474 0.122 0.152 0.137 0.289 0.091 0.442l-0.426 1.722c-0.061 0.274-0.229 0.351-0.503 0.214-1.92-0.899-3.109-3.657-3.109-5.912 0-4.8 3.505-9.203 10.088-9.203 5.272 0 9.402 3.749 9.402 8.792 0 5.257-3.322 9.478-7.923 9.478-1.523 0-2.986-0.808-3.474-1.752l-0.96 3.611c-0.493 1.528-1.134 2.855-1.929 4.072l0.039-0.064c1.337 0.425 2.875 0.671 4.47 0.671 8.416 0 15.238-6.823 15.238-15.238 0-8.397-6.791-15.207-15.179-15.238h-0.003l-0.001-0.002z"></path>
</symbol>
</defs>
</svg>
